<?xml version="1.0" encoding="UTF-8" standalone="no" ?>
<!DOCTYPE svg PUBLIC "-//W3C//DTD SVG 1.1//EN" "http://www.w3.org/Graphics/SVG/1.1/DTD/svg11.dtd">
<svg xmlns="http://www.w3.org/2000/svg" xmlns:xlink="http://www.w3.org/1999/xlink" version="1.1" width="1080" height="1080" viewBox="0 0 1080 1080" xml:space="preserve">
<desc>Created with Fabric.js 4.2.0</desc>
<defs>
</defs>
<g transform="matrix(1 0 0 1 540 540)" id="afb0b518-77cb-483b-bd20-750939b7b303"  >
</g>
<g transform="matrix(1 0 0 1 540 540)" id="e2a40120-420b-4389-a999-6cdedad8e1d8"  >
<rect style="stroke: none; stroke-width: 1; stroke-dasharray: none; stroke-linecap: butt; stroke-dashoffset: 0; stroke-linejoin: miter; stroke-miterlimit: 4; fill: rgb(255,255,255); fill-rule: nonzero; opacity: 1;" vector-effect="non-scaling-stroke"  x="-540" y="-540" rx="0" ry="0" width="1080" height="1080" />
</g>
<g transform="matrix(14.35 0 0 14.35 546 546)" id="d4fd622a-1fb0-4492-b392-54b23253bba6"  >
<circle style="stroke: rgb(206,234,202); stroke-width: 12; stroke-dasharray: none; stroke-linecap: butt; stroke-dashoffset: 0; stroke-linejoin: miter; stroke-miterlimit: 4; fill: rgb(163,219,162); fill-rule: nonzero; opacity: 1;" vector-effect="non-scaling-stroke"  cx="0" cy="0" r="35" />
</g>
<g transform="matrix(0.97 0 0 0.97 538.72 539.01)"  >
<g style="" vector-effect="non-scaling-stroke"   >
		<g transform="matrix(0 -8.67 8.67 0 -136.64 -0.14)"  >
<path style="stroke: rgb(0,0,0); stroke-width: 0; stroke-dasharray: none; stroke-linecap: butt; stroke-dashoffset: 0; stroke-linejoin: miter; stroke-miterlimit: 4; fill: rgb(0,0,0); fill-rule: nonzero; opacity: 1;" vector-effect="non-scaling-stroke"  transform=" translate(-50, -52)" d="M 80.738 22.116 L 19.262 22.116 C 16.679000000000002 22.116 14.61 24.184 14.61 26.77 L 14.61 63.428 C 14.61 65.961 16.68 68.08 19.262 68.08 L 45.218 68.08 L 61.55500000000001 81.88499999999999 L 55.402 68.08 L 80.738 68.08 C 83.271 68.08 85.39 65.961 85.39 63.428 L 85.39 26.77 C 85.391 24.184 83.271 22.116 80.738 22.116 z" stroke-linecap="round" />
</g>
		<g transform="matrix(0 8.67 -8.67 0 136.64 0.14)"  >
<path style="stroke: rgb(0,0,0); stroke-width: 0; stroke-dasharray: none; stroke-linecap: butt; stroke-dashoffset: 0; stroke-linejoin: miter; stroke-miterlimit: 4; fill: rgb(0,0,0); fill-rule: nonzero; opacity: 1;" vector-effect="non-scaling-stroke"  transform=" translate(-50, -52)" d="M 80.738 22.116 L 19.262 22.116 C 16.679000000000002 22.116 14.61 24.184 14.61 26.77 L 14.61 63.428 C 14.61 65.961 16.68 68.08 19.262 68.08 L 45.218 68.08 L 61.55500000000001 81.88499999999999 L 55.402 68.08 L 80.738 68.08 C 83.271 68.08 85.39 65.961 85.39 63.428 L 85.39 26.77 C 85.391 24.184 83.271 22.116 80.738 22.116 z" stroke-linecap="round" />
</g>
</g>
</g>
<g transform="matrix(0.94 0 0 0.94 541.67 541.3)"  >
<g style="" vector-effect="non-scaling-stroke"   >
		<g transform="matrix(0 -8.67 8.67 0 -136.64 -0.14)"  >
<path style="stroke: rgb(0,0,0); stroke-width: 0; stroke-dasharray: none; stroke-linecap: butt; stroke-dashoffset: 0; stroke-linejoin: miter; stroke-miterlimit: 4; fill: rgb(255,255,255); fill-rule: nonzero; opacity: 1;" vector-effect="non-scaling-stroke"  transform=" translate(-50, -52)" d="M 80.738 22.116 L 19.262 22.116 C 16.679000000000002 22.116 14.61 24.184 14.61 26.77 L 14.61 63.428 C 14.61 65.961 16.68 68.08 19.262 68.08 L 45.218 68.08 L 61.55500000000001 81.88499999999999 L 55.402 68.08 L 80.738 68.08 C 83.271 68.08 85.39 65.961 85.39 63.428 L 85.39 26.77 C 85.391 24.184 83.271 22.116 80.738 22.116 z" stroke-linecap="round" />
</g>
		<g transform="matrix(0 8.67 -8.67 0 136.64 0.14)"  >
<path style="stroke: rgb(0,0,0); stroke-width: 0; stroke-dasharray: none; stroke-linecap: butt; stroke-dashoffset: 0; stroke-linejoin: miter; stroke-miterlimit: 4; fill: rgb(255,255,255); fill-rule: nonzero; opacity: 1;" vector-effect="non-scaling-stroke"  transform=" translate(-50, -52)" d="M 80.738 22.116 L 19.262 22.116 C 16.679000000000002 22.116 14.61 24.184 14.61 26.77 L 14.61 63.428 C 14.61 65.961 16.68 68.08 19.262 68.08 L 45.218 68.08 L 61.55500000000001 81.88499999999999 L 55.402 68.08 L 80.738 68.08 C 83.271 68.08 85.39 65.961 85.39 63.428 L 85.39 26.77 C 85.391 24.184 83.271 22.116 80.738 22.116 z" stroke-linecap="round" />
</g>
</g>
</g>
<g transform="matrix(1 0 0 1 350.81 540)"  >
<g style="" vector-effect="non-scaling-stroke"   >
		<g transform="matrix(1.95 0 0 1 0.26 -185.27)"  >
<g style="" vector-effect="non-scaling-stroke"   >
		<g transform="matrix(5.74 0 0 5.74 -3.47 -44.93)"  >
<rect style="stroke: none; stroke-width: 1; stroke-dasharray: none; stroke-linecap: butt; stroke-dashoffset: 0; stroke-linejoin: miter; stroke-miterlimit: 4; fill: rgb(22,21,21); fill-rule: nonzero; opacity: 1;" vector-effect="non-scaling-stroke"  x="-12.395" y="-1.305" rx="0" ry="0" width="24.79" height="2.61" />
</g>
		<g transform="matrix(5.74 0 0 5.74 -19.92 -15.08)"  >
<rect style="stroke: none; stroke-width: 1; stroke-dasharray: none; stroke-linecap: butt; stroke-dashoffset: 0; stroke-linejoin: miter; stroke-miterlimit: 4; fill: rgb(22,21,21); fill-rule: nonzero; opacity: 1;" vector-effect="non-scaling-stroke"  x="-9.53" y="-1.305" rx="0" ry="0" width="19.06" height="2.61" />
</g>
		<g transform="matrix(5.74 0 0 5.74 0 15.07)"  >
<rect style="stroke: none; stroke-width: 1; stroke-dasharray: none; stroke-linecap: butt; stroke-dashoffset: 0; stroke-linejoin: miter; stroke-miterlimit: 4; fill: rgb(22,21,21); fill-rule: nonzero; opacity: 1;" vector-effect="non-scaling-stroke"  x="-13" y="-1.305" rx="0" ry="0" width="26" height="2.61" />
</g>
		<g transform="matrix(5.74 0 0 5.74 -10.39 44.92)"  >
<rect style="stroke: none; stroke-width: 1; stroke-dasharray: none; stroke-linecap: butt; stroke-dashoffset: 0; stroke-linejoin: miter; stroke-miterlimit: 4; fill: rgb(22,21,21); fill-rule: nonzero; opacity: 1;" vector-effect="non-scaling-stroke"  x="-11.19" y="-1.305" rx="0" ry="0" width="22.38" height="2.61" />
</g>
</g>
</g>
		<g transform="matrix(1.86 0 0 1 -5.98 -61.59)"  >
<g style="" vector-effect="non-scaling-stroke"   >
		<g transform="matrix(5.74 0 0 5.74 -3.47 -44.93)"  >
<rect style="stroke: none; stroke-width: 1; stroke-dasharray: none; stroke-linecap: butt; stroke-dashoffset: 0; stroke-linejoin: miter; stroke-miterlimit: 4; fill: rgb(22,21,21); fill-rule: nonzero; opacity: 1;" vector-effect="non-scaling-stroke"  x="-12.395" y="-1.305" rx="0" ry="0" width="24.79" height="2.61" />
</g>
		<g transform="matrix(5.74 0 0 5.74 -19.92 -15.08)"  >
<rect style="stroke: none; stroke-width: 1; stroke-dasharray: none; stroke-linecap: butt; stroke-dashoffset: 0; stroke-linejoin: miter; stroke-miterlimit: 4; fill: rgb(22,21,21); fill-rule: nonzero; opacity: 1;" vector-effect="non-scaling-stroke"  x="-9.53" y="-1.305" rx="0" ry="0" width="19.06" height="2.61" />
</g>
		<g transform="matrix(5.74 0 0 5.74 0 15.07)"  >
<rect style="stroke: none; stroke-width: 1; stroke-dasharray: none; stroke-linecap: butt; stroke-dashoffset: 0; stroke-linejoin: miter; stroke-miterlimit: 4; fill: rgb(22,21,21); fill-rule: nonzero; opacity: 1;" vector-effect="non-scaling-stroke"  x="-13" y="-1.305" rx="0" ry="0" width="26" height="2.61" />
</g>
		<g transform="matrix(5.74 0 0 5.74 -10.39 44.92)"  >
<rect style="stroke: none; stroke-width: 1; stroke-dasharray: none; stroke-linecap: butt; stroke-dashoffset: 0; stroke-linejoin: miter; stroke-miterlimit: 4; fill: rgb(22,21,21); fill-rule: nonzero; opacity: 1;" vector-effect="non-scaling-stroke"  x="-11.19" y="-1.305" rx="0" ry="0" width="22.38" height="2.61" />
</g>
</g>
</g>
		<g transform="matrix(1.82 0 0 1 -8.98 60)"  >
<g style="" vector-effect="non-scaling-stroke"   >
		<g transform="matrix(5.74 0 0 5.74 -3.47 -44.93)"  >
<rect style="stroke: none; stroke-width: 1; stroke-dasharray: none; stroke-linecap: butt; stroke-dashoffset: 0; stroke-linejoin: miter; stroke-miterlimit: 4; fill: rgb(22,21,21); fill-rule: nonzero; opacity: 1;" vector-effect="non-scaling-stroke"  x="-12.395" y="-1.305" rx="0" ry="0" width="24.79" height="2.61" />
</g>
		<g transform="matrix(5.74 0 0 5.74 -19.92 -15.08)"  >
<rect style="stroke: none; stroke-width: 1; stroke-dasharray: none; stroke-linecap: butt; stroke-dashoffset: 0; stroke-linejoin: miter; stroke-miterlimit: 4; fill: rgb(22,21,21); fill-rule: nonzero; opacity: 1;" vector-effect="non-scaling-stroke"  x="-9.53" y="-1.305" rx="0" ry="0" width="19.06" height="2.61" />
</g>
		<g transform="matrix(5.74 0 0 5.74 0 15.07)"  >
<rect style="stroke: none; stroke-width: 1; stroke-dasharray: none; stroke-linecap: butt; stroke-dashoffset: 0; stroke-linejoin: miter; stroke-miterlimit: 4; fill: rgb(22,21,21); fill-rule: nonzero; opacity: 1;" vector-effect="non-scaling-stroke"  x="-13" y="-1.305" rx="0" ry="0" width="26" height="2.61" />
</g>
		<g transform="matrix(5.74 0 0 5.74 -10.39 44.92)"  >
<rect style="stroke: none; stroke-width: 1; stroke-dasharray: none; stroke-linecap: butt; stroke-dashoffset: 0; stroke-linejoin: miter; stroke-miterlimit: 4; fill: rgb(22,21,21); fill-rule: nonzero; opacity: 1;" vector-effect="non-scaling-stroke"  x="-11.19" y="-1.305" rx="0" ry="0" width="22.38" height="2.61" />
</g>
</g>
</g>
		<g transform="matrix(1.83 0 0 1 -9.28 185.26)"  >
<g style="" vector-effect="non-scaling-stroke"   >
		<g transform="matrix(5.74 0 0 5.74 -3.47 -44.93)"  >
<rect style="stroke: none; stroke-width: 1; stroke-dasharray: none; stroke-linecap: butt; stroke-dashoffset: 0; stroke-linejoin: miter; stroke-miterlimit: 4; fill: rgb(22,21,21); fill-rule: nonzero; opacity: 1;" vector-effect="non-scaling-stroke"  x="-12.395" y="-1.305" rx="0" ry="0" width="24.79" height="2.61" />
</g>
		<g transform="matrix(5.74 0 0 5.74 -19.92 -15.08)"  >
<rect style="stroke: none; stroke-width: 1; stroke-dasharray: none; stroke-linecap: butt; stroke-dashoffset: 0; stroke-linejoin: miter; stroke-miterlimit: 4; fill: rgb(22,21,21); fill-rule: nonzero; opacity: 1;" vector-effect="non-scaling-stroke"  x="-9.53" y="-1.305" rx="0" ry="0" width="19.06" height="2.61" />
</g>
		<g transform="matrix(5.74 0 0 5.74 0 15.07)"  >
<rect style="stroke: none; stroke-width: 1; stroke-dasharray: none; stroke-linecap: butt; stroke-dashoffset: 0; stroke-linejoin: miter; stroke-miterlimit: 4; fill: rgb(22,21,21); fill-rule: nonzero; opacity: 1;" vector-effect="non-scaling-stroke"  x="-13" y="-1.305" rx="0" ry="0" width="26" height="2.61" />
</g>
		<g transform="matrix(5.74 0 0 5.74 -10.39 44.92)"  >
<rect style="stroke: none; stroke-width: 1; stroke-dasharray: none; stroke-linecap: butt; stroke-dashoffset: 0; stroke-linejoin: miter; stroke-miterlimit: 4; fill: rgb(22,21,21); fill-rule: nonzero; opacity: 1;" vector-effect="non-scaling-stroke"  x="-11.19" y="-1.305" rx="0" ry="0" width="22.38" height="2.61" />
</g>
</g>
</g>
</g>
</g>
<g transform="matrix(1 0 0 1 747.54 540)"  >
<g style="" vector-effect="non-scaling-stroke"   >
		<g transform="matrix(-10.76 0 0 5.74 4.22 -230.19)"  >
<rect style="stroke: none; stroke-width: 1; stroke-dasharray: none; stroke-linecap: butt; stroke-dashoffset: 0; stroke-linejoin: miter; stroke-miterlimit: 4; fill: rgb(22,21,21); fill-rule: nonzero; opacity: 1;" vector-effect="non-scaling-stroke"  x="-12.395" y="-1.305" rx="0" ry="0" width="24.79" height="2.61" />
</g>
		<g transform="matrix(-12.14 0 0 5.74 21.9 -200.34)"  >
<rect style="stroke: none; stroke-width: 1; stroke-dasharray: none; stroke-linecap: butt; stroke-dashoffset: 0; stroke-linejoin: miter; stroke-miterlimit: 4; fill: rgb(22,21,21); fill-rule: nonzero; opacity: 1;" vector-effect="non-scaling-stroke"  x="-9.53" y="-1.305" rx="0" ry="0" width="19.06" height="2.61" />
</g>
		<g transform="matrix(-9.99 0 0 5.74 7.72 -170.19)"  >
<rect style="stroke: none; stroke-width: 1; stroke-dasharray: none; stroke-linecap: butt; stroke-dashoffset: 0; stroke-linejoin: miter; stroke-miterlimit: 4; fill: rgb(22,21,21); fill-rule: nonzero; opacity: 1;" vector-effect="non-scaling-stroke"  x="-13" y="-1.305" rx="0" ry="0" width="26" height="2.61" />
</g>
		<g transform="matrix(-10.76 0 0 5.74 17.19 -140.34)"  >
<rect style="stroke: none; stroke-width: 1; stroke-dasharray: none; stroke-linecap: butt; stroke-dashoffset: 0; stroke-linejoin: miter; stroke-miterlimit: 4; fill: rgb(22,21,21); fill-rule: nonzero; opacity: 1;" vector-effect="non-scaling-stroke"  x="-11.19" y="-1.305" rx="0" ry="0" width="22.38" height="2.61" />
</g>
		<g transform="matrix(-9.96 0 0 5.74 13.69 -106.51)"  >
<rect style="stroke: none; stroke-width: 1; stroke-dasharray: none; stroke-linecap: butt; stroke-dashoffset: 0; stroke-linejoin: miter; stroke-miterlimit: 4; fill: rgb(22,21,21); fill-rule: nonzero; opacity: 1;" vector-effect="non-scaling-stroke"  x="-12.395" y="-1.305" rx="0" ry="0" width="24.79" height="2.61" />
</g>
		<g transform="matrix(-11.03 0 0 5.74 32.02 -76.66)"  >
<rect style="stroke: none; stroke-width: 1; stroke-dasharray: none; stroke-linecap: butt; stroke-dashoffset: 0; stroke-linejoin: miter; stroke-miterlimit: 4; fill: rgb(22,21,21); fill-rule: nonzero; opacity: 1;" vector-effect="non-scaling-stroke"  x="-9.53" y="-1.305" rx="0" ry="0" width="19.06" height="2.61" />
</g>
		<g transform="matrix(-9.96 0 0 5.74 7.66 -46.51)"  >
<rect style="stroke: none; stroke-width: 1; stroke-dasharray: none; stroke-linecap: butt; stroke-dashoffset: 0; stroke-linejoin: miter; stroke-miterlimit: 4; fill: rgb(22,21,21); fill-rule: nonzero; opacity: 1;" vector-effect="non-scaling-stroke"  x="-13" y="-1.305" rx="0" ry="0" width="26" height="2.61" />
</g>
		<g transform="matrix(-9.96 0 0 5.74 25.69 -16.66)"  >
<rect style="stroke: none; stroke-width: 1; stroke-dasharray: none; stroke-linecap: butt; stroke-dashoffset: 0; stroke-linejoin: miter; stroke-miterlimit: 4; fill: rgb(22,21,21); fill-rule: nonzero; opacity: 1;" vector-effect="non-scaling-stroke"  x="-11.19" y="-1.305" rx="0" ry="0" width="22.38" height="2.61" />
</g>
		<g transform="matrix(-9.9 0 0 5.74 14.43 15.08)"  >
<rect style="stroke: none; stroke-width: 1; stroke-dasharray: none; stroke-linecap: butt; stroke-dashoffset: 0; stroke-linejoin: miter; stroke-miterlimit: 4; fill: rgb(22,21,21); fill-rule: nonzero; opacity: 1;" vector-effect="non-scaling-stroke"  x="-12.395" y="-1.305" rx="0" ry="0" width="24.79" height="2.61" />
</g>
		<g transform="matrix(-9.3 0 0 5.74 48.51 44.93)"  >
<rect style="stroke: none; stroke-width: 1; stroke-dasharray: none; stroke-linecap: butt; stroke-dashoffset: 0; stroke-linejoin: miter; stroke-miterlimit: 4; fill: rgb(22,21,21); fill-rule: nonzero; opacity: 1;" vector-effect="non-scaling-stroke"  x="-9.53" y="-1.305" rx="0" ry="0" width="19.06" height="2.61" />
</g>
		<g transform="matrix(-9.9 0 0 5.74 8.44 75.08)"  >
<rect style="stroke: none; stroke-width: 1; stroke-dasharray: none; stroke-linecap: butt; stroke-dashoffset: 0; stroke-linejoin: miter; stroke-miterlimit: 4; fill: rgb(22,21,21); fill-rule: nonzero; opacity: 1;" vector-effect="non-scaling-stroke"  x="-13" y="-1.305" rx="0" ry="0" width="26" height="2.61" />
</g>
		<g transform="matrix(-9.9 0 0 5.74 26.36 104.93)"  >
<rect style="stroke: none; stroke-width: 1; stroke-dasharray: none; stroke-linecap: butt; stroke-dashoffset: 0; stroke-linejoin: miter; stroke-miterlimit: 4; fill: rgb(22,21,21); fill-rule: nonzero; opacity: 1;" vector-effect="non-scaling-stroke"  x="-11.19" y="-1.305" rx="0" ry="0" width="22.38" height="2.61" />
</g>
		<g transform="matrix(-11.14 0 0 5.74 0 140.34)"  >
<rect style="stroke: none; stroke-width: 1; stroke-dasharray: none; stroke-linecap: butt; stroke-dashoffset: 0; stroke-linejoin: miter; stroke-miterlimit: 4; fill: rgb(22,21,21); fill-rule: nonzero; opacity: 1;" vector-effect="non-scaling-stroke"  x="-12.395" y="-1.305" rx="0" ry="0" width="24.79" height="2.61" />
</g>
		<g transform="matrix(-12.74 0 0 5.74 16.67 170.19)"  >
<rect style="stroke: none; stroke-width: 1; stroke-dasharray: none; stroke-linecap: butt; stroke-dashoffset: 0; stroke-linejoin: miter; stroke-miterlimit: 4; fill: rgb(22,21,21); fill-rule: nonzero; opacity: 1;" vector-effect="non-scaling-stroke"  x="-9.53" y="-1.305" rx="0" ry="0" width="19.06" height="2.61" />
</g>
		<g transform="matrix(-10.56 0 0 5.74 0.8 200.34)"  >
<rect style="stroke: none; stroke-width: 1; stroke-dasharray: none; stroke-linecap: butt; stroke-dashoffset: 0; stroke-linejoin: miter; stroke-miterlimit: 4; fill: rgb(22,21,21); fill-rule: nonzero; opacity: 1;" vector-effect="non-scaling-stroke"  x="-13" y="-1.305" rx="0" ry="0" width="26" height="2.61" />
</g>
		<g transform="matrix(-11.14 0 0 5.74 13.42 230.19)"  >
<rect style="stroke: none; stroke-width: 1; stroke-dasharray: none; stroke-linecap: butt; stroke-dashoffset: 0; stroke-linejoin: miter; stroke-miterlimit: 4; fill: rgb(22,21,21); fill-rule: nonzero; opacity: 1;" vector-effect="non-scaling-stroke"  x="-11.19" y="-1.305" rx="0" ry="0" width="22.38" height="2.61" />
</g>
</g>
</g>
<g transform="matrix(1.37 -0.32 0.32 1.37 172.47 258.99)" id="1d8d78a9-5392-472d-9d3a-78100d345ac7"  >
<polygon style="stroke: rgb(0,0,0); stroke-width: 6; stroke-dasharray: none; stroke-linecap: butt; stroke-dashoffset: 0; stroke-linejoin: miter; stroke-miterlimit: 4; fill: rgb(252,244,190); fill-rule: nonzero; opacity: 1;" vector-effect="non-scaling-stroke"  points="0,-35.47 11.56,-12.17 37.29,-8.4 18.68,9.8 23.06,35.47 0,23.42 -23.06,35.47 -18.74,9.8 -37.29,-8.4 -11.56,-12.17 " />
</g>
<g transform="matrix(0.79 0.13 -0.13 0.79 255.11 231.37)"  >
<polygon style="stroke: rgb(0,0,0); stroke-width: 6; stroke-dasharray: none; stroke-linecap: butt; stroke-dashoffset: 0; stroke-linejoin: miter; stroke-miterlimit: 4; fill: rgb(252,244,190); fill-rule: nonzero; opacity: 1;" vector-effect="non-scaling-stroke"  points="0,-35.47 11.56,-12.17 37.29,-8.4 18.68,9.8 23.06,35.47 0,23.42 -23.06,35.47 -18.74,9.8 -37.29,-8.4 -11.56,-12.17 " />
</g>
<g transform="matrix(1.38 0.28 -0.28 1.38 886.61 237.37)"  >
<polygon style="stroke: rgb(0,0,0); stroke-width: 6; stroke-dasharray: none; stroke-linecap: butt; stroke-dashoffset: 0; stroke-linejoin: miter; stroke-miterlimit: 4; fill: rgb(252,244,190); fill-rule: nonzero; opacity: 1;" vector-effect="non-scaling-stroke"  points="0,-35.47 11.56,-12.17 37.29,-8.4 18.68,9.8 23.06,35.47 0,23.42 -23.06,35.47 -18.74,9.8 -37.29,-8.4 -11.56,-12.17 " />
</g>
<g transform="matrix(0.84 -0.12 0.12 0.84 937.38 189.8)"  >
<polygon style="stroke: rgb(0,0,0); stroke-width: 6; stroke-dasharray: none; stroke-linecap: butt; stroke-dashoffset: 0; stroke-linejoin: miter; stroke-miterlimit: 4; fill: rgb(252,244,190); fill-rule: nonzero; opacity: 1;" vector-effect="non-scaling-stroke"  points="0,-35.47 11.56,-12.17 37.29,-8.4 18.68,9.8 23.06,35.47 0,23.42 -23.06,35.47 -18.74,9.8 -37.29,-8.4 -11.56,-12.17 " />
</g>
<g transform="matrix(0.83 -0.13 0.13 0.83 801.51 243.58)"  >
<polygon style="stroke: rgb(0,0,0); stroke-width: 6; stroke-dasharray: none; stroke-linecap: butt; stroke-dashoffset: 0; stroke-linejoin: miter; stroke-miterlimit: 4; fill: rgb(252,244,190); fill-rule: nonzero; opacity: 1;" vector-effect="non-scaling-stroke"  points="0,-35.47 11.56,-12.17 37.29,-8.4 18.68,9.8 23.06,35.47 0,23.42 -23.06,35.47 -18.74,9.8 -37.29,-8.4 -11.56,-12.17 " />
</g>
<g transform="matrix(1 0 0 1 540 161.55)" style="" id="48bd24d0-1460-435c-9948-9cfbd9c72512"  >
		<text xml:space="preserve" font-family="Raleway" font-size="105" font-style="normal" font-weight="900" style="stroke: none; stroke-width: 1; stroke-dasharray: none; stroke-linecap: butt; stroke-dashoffset: 0; stroke-linejoin: miter; stroke-miterlimit: 4; fill: rgb(0,0,0); fill-rule: nonzero; opacity: 1; white-space: pre;" ><tspan x="-173.88" y="32.98" >Manga</tspan></text>
</g>
<g transform="matrix(1 0 0 1 540 917.87)" style="" id="b8cc14d1-8678-4a3e-9d31-a1f44b65f664"  >
		<text xml:space="preserve" font-family="Raleway" font-size="105" font-style="normal" font-weight="900" style="stroke: none; stroke-width: 1; stroke-dasharray: none; stroke-linecap: butt; stroke-dashoffset: 0; stroke-linejoin: miter; stroke-miterlimit: 4; fill: rgb(0,0,0); fill-rule: nonzero; opacity: 1; white-space: pre;" ><tspan x="-222.6" y="32.98" >Enhance</tspan></text>
</g>
</svg>